<?xml version="1.0" standalone="no"?>
<!DOCTYPE svg PUBLIC "-//W3C//DTD SVG 20010904//EN"
 "http://www.w3.org/TR/2001/REC-SVG-20010904/DTD/svg10.dtd">
<svg version="1.0" xmlns="http://www.w3.org/2000/svg"
 width="147.000000pt" height="127.000000pt" viewBox="0 0 147.000000 127.000000"
 preserveAspectRatio="xMidYMid meet">

<g transform="translate(0.000000,127.000000) scale(0.100000,-0.100000)"
fill="#ef4444" stroke="none">
<path d="M751 1101 c-17 -17 -21 -33 -21 -92 l0 -72 -44 41 c-110 101 -204
136 -351 130 -115 -5 -169 -25 -235 -84 -122 -110 -126 -271 -11 -446 106
-161 309 -311 556 -409 44 -17 89 -38 100 -45 21 -15 151 -19 172 -6 9 6 13
63 15 207 3 225 -2 213 84 200 83 -12 118 -60 204 -280 24 -60 50 -116 59
-123 11 -9 43 -12 101 -10 84 3 85 3 88 30 2 16 -23 88 -65 185 -56 133 -75
166 -116 207 -26 26 -47 49 -45 51 2 1 21 12 44 23 53 27 110 91 125 140 6 22
10 72 8 113 -5 90 -29 141 -88 186 -73 56 -122 66 -353 71 -199 4 -207 3 -227
-17z m397 -155 c88 -45 93 -178 10 -240 -32 -23 -113 -36 -180 -28 l-48 5 0
137 c0 75 3 140 8 144 13 14 175 0 210 -18z"/>
</g>
</svg>
